# AST/ASF file generated using VICON BodyLanguage
# -----------------------------------------------
:version 1.10
:name VICON
:units
  mass 1.0
  length 0.45
  angle deg
:documentation
   .ast/.asf automatically generated from VICON data using
   VICON BodyBuilder and BodyLanguage model FoxedUp or BRILLIANT.MOD
:root
   order TX TY TZ RX RY RZ
   axis XYZ
   position 0 0 0  
   orientation 0 0 0 
:bonedata
  begin
     id 1 
     name lhipjoint
     direction 0.541323 -0.757556 0.364798 
     length 2.47576 
     axis 0 0 0  XYZ
  end
  begin
     id 2 
     name lfemur
     direction 0.34202 -0.939693 0  
     length 7.46493  
     axis 0 0 20  XYZ
    dof rx ry rz
    limits (-160.0 20.0)
           (-70.0 70.0)
           (-60.0 70.0)
  end
  begin
     id 3 
     name ltibia
     direction 0.34202 -0.939693 0   
     length 7.73805   
     axis 0 0 20   XYZ
    dof rx
    limits (-10.0 170.0)
  end
  begin
     id 4 
     name lfoot
     direction 0.107174 -0.294458 0.949636   
     length 2.25864   
     axis -90 7.62852e-016 20   XYZ
    dof rx rz
    limits (-45.0 90.0)
           (-70.0 20.0)
  end
  begin
     id 5 
     name ltoes
     direction 1.53606e-011 -4.21934e-011 1   
     length 1.12451   
     axis -90 7.62852e-016 20   XYZ
    dof rx
    limits (-90.0 20.0)
  end
  begin
     id 6 
     name rhipjoint
     direction -0.524745 -0.766967 0.36933   
     length 2.44538  
     axis 0 0 0  XYZ 
  end
  begin
     id 7 
     name rfemur
     direction -0.34202 -0.939693 0   
     length 7.61604   
     axis 0 0 -20   XYZ
    dof rx ry rz
    limits (-160.0 20.0)
           (-70.0 70.0)
           (-70.0 60.0)
  end
  begin
     id 8 
     name rtibia
     direction -0.34202 -0.939693 0   
     length 7.61056   
     axis 0 0 -20   XYZ
    dof rx
    limits (-10.0 170.0)
 end
 begin
     id 9 
     name rfoot
     direction -0.12616 -0.346623 0.929482   
     length 2.46372  
     axis -90 -7.62852e-016 -20   XYZ
    dof rx rz
    limits (-45.0 90.0)
           (-20.0 70.0)
  end
  begin
     id 10 
     name rtoes
     direction -1.53531e-011 -4.22004e-011 1   
     length 1.21611   
     axis -90 -7.62852e-016 -20   XYZ
    dof rx
    limits (-90.0 20.0)
  end
  begin
     id 11 
     name lowerback
     direction -0.000778023 0.997293 -0.0735223   
     length 2.06139   
     axis 0 0 0   XYZ
    dof rx ry rz
    limits (-20.0 45.0)
           (-30.0 30.0)
           (-30.0 30.0)
  end
  begin
     id 12 
     name upperback
     direction 0.0222598 0.999722 -0.0078355   
     length 2.06383   
     axis 0 0 0   XYZ
    dof rx ry rz
    limits (-20.0 45.0)
           (-30.0 30.0)
           (-30.0 30.0)
  end
  begin
     id 13 
     name thorax
     direction 0.0219654 0.999405 0.0265994   
     length 2.07163   
     axis 0 0 0   XYZ
    dof rx ry rz
    limits (-20.0 45.0)
           (-30.0 30.0)
           (-30.0 30.0)
  end
  begin
     id 14 
     name lowerneck
     direction 0.0213282 0.988147 0.15202   
     length 1.75969   
     axis 0 0 0   XYZ
    dof rx ry rz
    limits (-20.0 45.0)
           (-30.0 30.0)
           (-30.0 30.0)
  end
  begin
     id 15 
     name upperneck
     direction -0.0546456 0.982624 -0.177379   
     length 1.79244   
     axis 0 0 0   XYZ
    dof rx ry rz
    limits (-20.0 45.0)
           (-30.0 30.0)
           (-30.0 30.0)
  end
  begin
     id 16
     name head
     direction -0.0199987 0.996855 -0.076686  
     length 1.80555  
     axis 0 0 0   XYZ
    dof rx ry rz
    limits (-20.0 45.0)
           (-30.0 30.0)
           (-30.0 30.0)
  end
  begin
     id 17 
     name lclavicle
     direction 0.929565 0.363219 -0.063096  
     length 3.55722  
     axis 0 0 0   XYZ
    dof ry rz
    limits (-20.0 10.0)
           (0.0 20.0)
  end
  begin
     id 18 
     name lhumerus
     direction 1 -4.48993e-011 -2.36203e-027   
     length 4.92785   
     axis 180 -30 -90   XYZ
    dof rx ry rz
    limits (-60.0 90.0)
           (-90.0 90.0)
           (-90.0 90.0)
  end
  begin
     id 19
     name lradius
     direction 1 -4.48947e-011 2.02997e-027   
     length 3.44052   
     axis 180 -30 -90   XYZ
    dof rx
    limits (-10.0 170.0)
  end
  begin
     id 20
     name lwrist
     direction 1 -4.48962e-011 1.45991e-027   
     length 1.72026   
     axis 1.49639e-024 90 90   XYZ
    dof ry
    limits (-180.0 0.0)
 end
  begin
     id 21 
     name lhand
     direction 1 -4.48984e-011 2.91906e-027   
     length 0.654326   
     axis -1.863e-015 90 90   XYZ
    dof rx rz
    limits (-90.0 90.0)
           (-45.0 45.0)
  end
  begin
     id 22 
     name lfingers
     direction 1 -4.48961e-011 5.83968e-027   
     length 0.527534   
     axis -3.72598e-015 90 90   XYZ
    dof rx
    limits (0.0 90.0)
  end
  begin
     id 23
     name lthumb
     direction 0.707107 -6.34963e-011 0.707107   
     length 0.757437   
     axis -90 45 -6.68868e-015   XYZ
    dof rx rz
    limits (-45.0 45.0)
           (-45.0 45.0)
  end
  begin
     id 24 
     name rclavicle
     direction -0.902944 0.422599 -0.0781198   
     length 3.54432  
     axis 0 0 0   XYZ 
    dof ry rz
    limits (-10.0 20.0)
           (-20.0 0.0)
  end
  begin
     id 25 
     name rhumerus
     direction -1 -4.48953e-011 -4.75835e-028  
     length 5.09181   
     axis 180 30 90   XYZ
    dof rx ry rz
    limits (-90.0 60.0)
           (-90.0 90.0)
           (-90.0 90.0)
  end
  begin
     id 26 
     name rradius
     direction -1 -4.48986e-011 -3.25889e-027   
     length 3.49865   
     axis 180 30 90   XYZ
    dof rx
    limits (-10.0 170.0)
  end
  begin
     id 27 
     name rwrist
     direction -1 -4.48963e-011 1.45989e-027   
     length 1.74933   
     axis 1.49639e-024 -90 -90   XYZ
    dof ry
    limits (-180.0 0.0)
  end
  begin
     id 28
     name rhand
     direction -1 -4.49003e-011 2.91844e-027   
     length 0.66641   
     axis -1.863e-015 -90 -90   XYZ
    dof rx rz
    limits (-90.0 90.0)
           (-45.0 45.0)
  end
  begin
     id 29
     name rfingers
     direction -1 -4.48973e-011 5.83886e-027   
     length 0.537277   
     axis -3.72598e-015 -90 -90   XYZ
    dof rx
    limits (0.0 90.0)
  end
  begin
     id 30
     name rthumb
     direction -0.707107 -6.34976e-011 0.707107   
     length 0.771425   
     axis -90 -45 6.68868e-015   XYZ
    dof rx rz
    limits (-45.0 45.0)
           (-45.0 45.0)
  end
:hierarchy
  begin
    root lhipjoint rhipjoint lowerback
    lhipjoint lfemur
    lfemur ltibia
    ltibia lfoot
    lfoot ltoes
    rhipjoint rfemur
    rfemur rtibia
    rtibia rfoot
    rfoot rtoes
    lowerback upperback
    upperback thorax
    thorax lowerneck lclavicle rclavicle
    lowerneck upperneck
    upperneck head
    lclavicle lhumerus
    lhumerus lradius
    lradius lwrist
    lwrist lhand lthumb
    lhand lfingers
    rclavicle rhumerus
    rhumerus rradius
    rradius rwrist
    rwrist rhand rthumb
    rhand rfingers
  end

#!OML:ASF H:\LiuWeirdWalks\Patient Classification 1\Patient 1\Session 1\male.ASF
:FULLY-SPECIFIED
:DEGREES
1
root 0.822124 17.8017 -31.6154 1.10428 36.7293 -1.5116
lowerback -2.85158 8.33235 -1.70745
upperback -0.833942 11.2067 4.92459
thorax -0.603316 5.68699 6.16793
lowerneck 1.59515 18.626 13.5508
upperneck 6.29242 26.5422 -15.0391
head 5.4433 13.1656 -4.67392
rclavicle -2.50469e-014 3.49861e-014
rhumerus -21.6151 9.24113 -79.7169
rradius 40.758
rwrist -15.9963
rhand -20.323 1.67414
rfingers 7.12502
rthumb 6.02794 -28.2201
lclavicle -2.50469e-014 3.49861e-014
lhumerus -45.3112 36.4342 68.5382
lradius 14.5844
lwrist -8.91386
lhand -31.9276 -16.6089
lfingers 7.12502
lthumb -5.1788 13.3079
rfemur 0.103351 -14.2444 19.0122
rtibia 26.6497
rfoot -21.1244 -40.698
rtoes 2.8421
lfemur -15.4686 -10.3347 -15.5105
ltibia 32.3045
lfoot -14.1736 1.82871
ltoes -9.46732
2
root 0.816654 17.8015 -31.6113 1.11569 36.6159 -1.48541
lowerback -2.09907 8.26954 -0.559538
upperback -1.25871 11.0925 3.90073
thorax -1.01921 5.60711 4.36931
lowerneck 1.95696 18.7746 14.2337
upperneck 5.68749 26.5687 -14.3362
head 5.18794 13.2215 -4.61106
rclavicle -1.56543e-014 -1.19271e-014
rhumerus -22.1052 8.66853 -81.5555
rradius 40.8247
rwrist -15.641
rhand -20.3506 2.05508
rfingers 7.12502
rthumb 6.00135 -27.8399
lclavicle -1.56543e-014 -1.19271e-014
lhumerus -44.6387 34.1909 68.8064
lradius 15.244
lwrist -5.93798
lhand -32.3629 -16.6738
lfingers 7.12502
lthumb -5.5991 13.2322
rfemur 0.101969 -14.212 18.9954
rtibia 26.6539
rfoot -21.0675 -40.6315
rtoes 2.77974
lfemur -15.4236 -10.2811 -15.5132
ltibia 32.2736
lfoot -14.174 1.86171
ltoes -9.51025
3
root 0.811062 17.8002 -31.6075 1.1132 36.4883 -1.50129
lowerback -1.37651 8.19435 0.597426
upperback -1.66948 10.9801 2.91152
thorax -1.41995 5.5217 2.62891
lowerneck 2.17473 18.9233 14.7916
upperneck 5.2731 26.6153 -13.5409
head 4.9881 13.2739 -4.4869
rclavicle 1.80049e-013 2.38542e-015
rhumerus -22.6008 8.39492 -83.3427
rradius 40.9178
rwrist -15.1618
rhand -20.4017 2.16872
rfingers 7.12502
rthumb 5.95204 -27.7277
lclavicle 1.80049e-013 2.38542e-015
lhumerus -44.1288 32.0964 68.885
lradius 15.9438
lwrist -3.36072
lhand -32.0989 -17.0679
lfingers 7.12502
lthumb -5.34424 12.8447
rfemur 0.101616 -14.1755 19.0174
rtibia 26.6153
rfoot -21.0096 -40.5725
rtoes 2.71847
lfemur -15.4258 -10.2429 -15.4759
ltibia 32.2827
lfoot -14.1456 1.97247
ltoes -9.5561
4
root 0.805994 17.8007 -31.6053 1.04625 36.4083 -1.5814
lowerback -1.07284 8.68975 1.23269
upperback -2.06378 11.6392 2.08751
thorax -1.72678 5.8289 1.39466
lowerneck 2.12446 18.3675 16.2297
upperneck 5.28808 25.8341 -13.5369
head 5.07401 12.9031 -4.73732
rclavicle 1.09033e-013 6.36111e-015
rhumerus -23.5018 6.34644 -84.0646
rradius 41.0006
rwrist -14.8792
rhand -20.1424 2.22901
rfingers 7.12502
rthumb 6.20235 -27.6602
lclavicle 1.09033e-013 6.36111e-015
lhumerus -43.2054 29.723 69.3804
lradius 16.0606
lwrist -2.73143
lhand -32.2233 -17.3017
lfingers 7.12502
lthumb -5.4643 12.6079
rfemur 0.132265 -14.1462 19.0949
rtibia 26.5818
rfoot -21.0681 -40.5112
rtoes 2.73271
lfemur -15.3828 -10.2579 -15.3858
ltibia 32.289
lfoot -14.1593 2.04256
ltoes -9.50431
5
root 0.800427 17.8005 -31.6029 1.012 36.3157 -1.61868
lowerback -0.680212 8.89977 1.89238
upperback -2.38687 11.9242 1.37299
thorax -1.99795 5.94617 0.257376
lowerneck 2.20809 18.1419 17.0348
upperneck 5.05822 25.4658 -13.2763
head 5.00022 12.7388 -4.82128
rclavicle 1.09083e-014 7.15625e-015
rhumerus -24.1309 5.24306 -84.97
rradius 41.0533
rwrist -14.4867
rhand -20.0284 2.35333
rfingers 7.12502
rthumb 6.31244 -27.5326
lclavicle 1.09083e-014 7.15625e-015
lhumerus -42.6113 27.7159 69.793
lradius 16.4059
lwrist -1.65483
lhand -32.5347 -17.448
lfingers 7.12502
lthumb -5.76501 12.4536
rfemur 0.151817 -14.1193 19.134
rtibia 26.5461
rfoot -21.0427 -40.4598
rtoes 2.70963
lfemur -15.3529 -10.2908 -15.3341
ltibia 32.2915
lfoot -14.1467 2.15787
ltoes -9.50512
6
root 0.794647 17.8004 -31.6012 0.97888 36.2355 -1.64804
lowerback -0.40574 9.08656 2.33513
upperback -2.6238 12.1797 0.851435
thorax -2.18983 6.05446 -0.549806
lowerneck 2.27299 17.9352 17.6075
upperneck 4.80349 25.1386 -13.1242
head 4.91258 12.5892 -4.90486
rclavicle -9.85227e-014 -4.77083e-015
rhumerus -24.6857 4.34035 -85.5995
rradius 41.0483
rwrist -14.0609
rhand -19.8871 2.48348
rfingers 7.12502
rthumb 6.44882 -27.3983
lclavicle -9.85227e-014 -4.77083e-015
lhumerus -42.0991 26.0344 70.3
lradius 16.7041
lwrist -0.932939
lhand -32.9165 -17.5779
lfingers 7.12502
lthumb -6.13356 12.3133
rfemur 0.174808 -14.1027 19.1645
rtibia 26.5078
rfoot -21.0051 -40.4143
rtoes 2.68514
lfemur -15.3243 -10.3425 -15.2906
ltibia 32.2973
lfoot -14.1332 2.28049
ltoes -9.50008
7
root 0.788678 17.8003 -31.6 0.953558 36.1709 -1.65954
lowerback -0.258197 9.11571 2.53875
upperback -2.68927 12.2215 0.614987
thorax -2.24507 6.06658 -0.916401
lowerneck 2.2712 17.9106 17.6424
upperneck 4.45082 25.0511 -13.0388
head 4.78352 12.5465 -4.91333
rclavicle 6.42323e-014 5.56597e-015
rhumerus -24.9807 4.10208 -86.0091
rradius 40.946
rwrist -13.6931
rhand -19.7048 2.59393
rfingers 7.12502
rthumb 6.62476 -27.2824
lclavicle 6.42323e-014 5.56597e-015
lhumerus -41.7389 25.2091 70.7787
lradius 16.9785
lwrist -0.578475
lhand -33.3062 -17.7122
lfingers 7.12502
lthumb -6.50983 12.1677
rfemur 0.1925 -14.1044 19.176
rtibia 26.4868
rfoot -20.9648 -40.3661
rtoes 2.66294
lfemur -15.2881 -10.3911 -15.264
ltibia 32.2836
lfoot -14.1141 2.38151
ltoes -9.48827
